<?xml version="1.0" encoding="UTF-8"?>
<!DOCTYPE svg PUBLIC "-//W3C//DTD SVG 1.1//EN" "http://www.w3.org/Graphics/SVG/1.1/DTD/svg11.dtd">
<svg xmlns="http://www.w3.org/2000/svg" version="1.1" width="512px" height="512px" style="shape-rendering:geometricPrecision; text-rendering:geometricPrecision; image-rendering:optimizeQuality; fill-rule:evenodd; clip-rule:evenodd" xmlns:xlink="http://www.w3.org/1999/xlink">
<g><path style="opacity:0.986" fill="#3dd0ae" d="M 237.5,-0.5 C 249.5,-0.5 261.5,-0.5 273.5,-0.5C 345.018,11.1991 392.185,51.5324 415,120.5C 426.265,168.113 420.932,213.779 399,257.5C 383.161,285.19 365.827,311.856 347,337.5C 325.937,370.025 314.937,405.691 314,444.5C 312.235,447.473 309.735,449.64 306.5,451C 272.5,451.667 238.5,451.667 204.5,451C 201.265,449.64 198.765,447.473 197,444.5C 196.063,405.691 185.063,370.025 164,337.5C 145.173,311.856 127.839,285.19 112,257.5C 89.9941,213.786 84.6608,168.119 96,120.5C 118.807,51.5348 165.973,11.2015 237.5,-0.5 Z M 254.5,29.5 C 318.604,33.4574 361.77,65.4574 384,125.5C 393.226,161.272 390.892,196.272 377,230.5C 371.524,242.118 365.524,253.452 359,264.5C 343.274,287.228 327.941,310.228 313,333.5C 308.311,342.562 303.811,351.729 299.5,361C 270.167,361.667 240.833,361.667 211.5,361C 204.921,346.342 197.421,332.176 189,318.5C 171.423,294.354 155.089,269.354 140,243.5C 120.57,205.822 116.236,166.489 127,125.5C 143.881,76.6188 177.381,45.7855 227.5,33C 236.59,31.3699 245.59,30.2033 254.5,29.5 Z M 254.5,124.5 C 276.464,139.977 291.297,160.643 299,186.5C 302.1,203.203 296.934,216.703 283.5,227C 279.25,229.374 275.084,231.874 271,234.5C 270.667,219.5 270.333,204.5 270,189.5C 265.652,181.085 258.819,178.252 249.5,181C 245.333,182.5 242.5,185.333 241,189.5C 240.667,204.5 240.333,219.5 240,234.5C 226.492,228.327 217.158,218.327 212,204.5C 211.188,196.778 211.522,189.111 213,181.5C 218.458,166.574 226.458,153.241 237,141.5C 242.729,135.603 248.562,129.936 254.5,124.5 Z M 221.5,391.5 C 244.167,391.5 266.833,391.5 289.5,391.5C 287.733,401.438 286.399,411.438 285.5,421.5C 265.5,421.5 245.5,421.5 225.5,421.5C 224.601,411.439 223.267,401.439 221.5,391.5 Z"/></g>
<g><path style="opacity:0.988" fill="#3dd0ae" d="M 249.5,89.5 C 255.675,88.6432 261.342,89.8099 266.5,93C 291.131,111.293 310.298,134.127 324,161.5C 340.931,213.971 323.431,249.304 271.5,267.5C 270.667,285.491 270.167,303.491 270,321.5C 264.848,330.475 257.348,332.975 247.5,329C 244.527,327.235 242.36,324.735 241,321.5C 240.833,303.491 240.333,285.491 239.5,267.5C 190.352,250.536 172.185,216.87 185,166.5C 195.047,142.587 209.88,122.087 229.5,105C 236.067,99.5874 242.733,94.4207 249.5,89.5 Z M 254.5,124.5 C 248.562,129.936 242.729,135.603 237,141.5C 226.458,153.241 218.458,166.574 213,181.5C 211.522,189.111 211.188,196.778 212,204.5C 217.158,218.327 226.492,228.327 240,234.5C 240.333,219.5 240.667,204.5 241,189.5C 242.5,185.333 245.333,182.5 249.5,181C 258.819,178.252 265.652,181.085 270,189.5C 270.333,204.5 270.667,219.5 271,234.5C 275.084,231.874 279.25,229.374 283.5,227C 296.934,216.703 302.1,203.203 299,186.5C 291.297,160.643 276.464,139.977 254.5,124.5 Z"/></g>
<g><path style="opacity:0.991" fill="#3dcfad" d="M 291.5,511.5 C 267.5,511.5 243.5,511.5 219.5,511.5C 211.222,506.919 208.389,499.919 211,490.5C 212.5,486.333 215.333,483.5 219.5,482C 243.5,481.333 267.5,481.333 291.5,482C 299.915,486.348 302.748,493.181 300,502.5C 298.312,506.685 295.479,509.685 291.5,511.5 Z"/></g>
</svg>
