<?xml version="1.0" encoding="UTF-8"?>
<!DOCTYPE svg PUBLIC "-//W3C//DTD SVG 1.1//EN" "http://www.w3.org/Graphics/SVG/1.1/DTD/svg11.dtd">
<svg xmlns="http://www.w3.org/2000/svg" version="1.1" width="512px" height="512px" style="shape-rendering:geometricPrecision; text-rendering:geometricPrecision; image-rendering:optimizeQuality; fill-rule:evenodd; clip-rule:evenodd" xmlns:xlink="http://www.w3.org/1999/xlink">
<g><path style="opacity:0.972" fill="#3cd0ae" d="M 257.5,-0.5 C 264.167,-0.5 270.833,-0.5 277.5,-0.5C 285.029,0.600758 292.696,1.76743 300.5,3C 307.39,4.04154 314.057,5.70821 320.5,8C 317.423,17.8086 314.423,27.6419 311.5,37.5C 293.87,32.3927 275.87,30.0594 257.5,30.5C 257.5,20.1667 257.5,9.83333 257.5,-0.5 Z"/></g>
<g><path style="opacity:0.976" fill="#3dd0ae" d="M 195.5,5.5 C 196.75,5.57735 197.583,6.24402 198,7.5C 200.645,17.0798 202.812,26.7464 204.5,36.5C 186.668,40.1109 169.668,46.1109 153.5,54.5C 148.205,46.0811 143.539,37.2477 139.5,28C 143.78,24.8538 148.447,22.1871 153.5,20C 167.444,14.6313 181.444,9.79792 195.5,5.5 Z"/></g>
<g><path style="opacity:0.975" fill="#3dd0ae" d="M 375.5,29.5 C 393.931,38.8041 410.765,50.4707 426,64.5C 426.315,65.9078 425.982,67.2411 425,68.5C 419.167,75 413.333,81.5 407.5,88C 406.833,88.6667 406.167,88.6667 405.5,88C 392.449,76.2825 378.282,66.1158 363,57.5C 366.295,47.8987 370.462,38.5653 375.5,29.5 Z"/></g>
<g><path style="opacity:0.986" fill="#3dd0ae" d="M 235.5,58.5 C 320.757,54.0363 385.257,88.0363 429,160.5C 454.15,208.705 459.484,259.039 445,311.5C 423.235,378.932 378.735,423.765 311.5,446C 227.529,466.561 157.363,444.395 101,379.5C 55.648,318.033 46.3147,251.367 73,179.5C 105.089,109.585 159.255,69.252 235.5,58.5 Z M 254.5,88.5 C 299.703,89.4469 338.703,105.28 371.5,136C 365.464,135.996 359.464,135.329 353.5,134C 333.698,128.8 314.032,123.133 294.5,117C 284.963,114.577 275.297,112.911 265.5,112C 240.167,111.333 214.833,111.333 189.5,112C 173.849,118.469 169.016,129.636 175,145.5C 176.458,147.96 178.291,150.127 180.5,152C 193.566,161.865 208.233,167.865 224.5,170C 230.752,174.592 237.252,178.759 244,182.5C 245.562,184.957 246.562,187.624 247,190.5C 246.309,208.643 254.809,219.477 272.5,223C 283.866,223.206 295.199,223.873 306.5,225C 313.546,227.37 319.546,231.37 324.5,237C 337.081,243.383 349.247,242.55 361,234.5C 360.517,240.335 357.351,244.168 351.5,246C 344.755,247.956 338.088,247.623 331.5,245C 323.557,238.28 314.391,234.446 304,233.5C 295.342,233.996 288.342,237.662 283,244.5C 280.274,249.893 276.774,254.726 272.5,259C 264.853,262.582 256.853,265.249 248.5,267C 238.256,271.603 233.256,279.603 233.5,291C 234.694,306.59 240.194,320.424 250,332.5C 258,341.167 266,349.833 274,358.5C 271.857,373.806 276.357,386.639 287.5,397C 300.778,403.944 311.944,401.444 321,389.5C 326.758,378.891 330.091,367.558 331,355.5C 332.027,343.856 332.694,332.189 333,320.5C 341.735,316.297 349.402,310.63 356,303.5C 359.594,295.949 361.26,287.949 361,279.5C 371.263,273.618 381.763,268.118 392.5,263C 402.125,261.173 411.792,259.673 421.5,258.5C 417.931,326.171 386.265,375.671 326.5,407C 271.515,430.942 218.182,427.609 166.5,397C 161.692,393.692 157.025,390.192 152.5,386.5C 155.81,380.874 158.31,374.874 160,368.5C 163,356.833 166,345.167 169,333.5C 169.725,332.941 170.558,332.608 171.5,332.5C 202.499,342.325 220.165,331.158 224.5,299C 224.263,288.689 219.763,280.856 211,275.5C 209.85,259.354 201.35,249.854 185.5,247C 176.5,246.333 167.5,246.333 158.5,247C 149.269,250.282 140.269,254.116 131.5,258.5C 126.606,251.75 122.272,244.583 118.5,237C 128.5,236.667 138.5,236.333 148.5,236C 155.949,233.775 162.282,229.775 167.5,224C 181.462,222.705 189.128,215.038 190.5,201C 189.487,191.626 186.653,182.792 182,174.5C 176.667,167.167 171.333,159.833 166,152.5C 158.395,144.068 148.895,139.234 137.5,138C 170.177,106.606 209.177,90.106 254.5,88.5 Z M 238.5,142.5 C 239.274,141.853 240.274,141.52 241.5,141.5C 251.511,142.176 261.511,143.009 271.5,144C 294.711,149.553 317.711,155.886 340.5,163C 359.657,166.851 378.99,169.351 398.5,170.5C 409.152,188.141 416.152,207.141 419.5,227.5C 410.759,228.401 402.093,229.735 393.5,231.5C 385.039,203.271 367.705,195.937 341.5,209.5C 333.9,202.864 325.233,198.031 315.5,195C 303.204,193.751 290.871,192.918 278.5,192.5C 277.95,177.238 271.95,164.738 260.5,155C 253.024,151.01 245.691,146.844 238.5,142.5 Z M 112.5,169.5 C 121.9,169.114 131.234,169.614 140.5,171C 145.211,177.589 150.045,184.089 155,190.5C 155.982,191.759 156.315,193.092 156,194.5C 150.27,197.562 145.103,201.396 140.5,206C 125.822,206.833 111.155,206.666 96.5,205.5C 100.764,192.976 106.097,180.976 112.5,169.5 Z M 89.5,249.5 C 94.9728,259.104 100.473,268.771 106,278.5C 114.23,289.798 125.064,293.298 138.5,289C 146.951,285.608 155.284,281.941 163.5,278C 168.823,277.501 174.156,277.334 179.5,277.5C 180.018,287.207 184.185,294.874 192,300.5C 192.52,302.289 192.187,303.956 191,305.5C 183.494,303.207 175.827,301.541 168,300.5C 153.818,301.013 144.485,308.013 140,321.5C 136.334,335.495 132.668,349.495 129,363.5C 101.233,330.703 88.0661,292.703 89.5,249.5 Z M 305.5,266.5 C 310.229,268.701 314.896,271.201 319.5,274C 322.72,275.352 326.053,276.186 329.5,276.5C 329.82,279.898 329.487,283.232 328.5,286.5C 322.331,290.084 316.331,293.917 310.5,298C 307.213,301.293 304.713,305.127 303,309.5C 301.816,320.458 301.149,331.458 301,342.5C 292.37,332.202 283.37,322.202 274,312.5C 270.25,307.502 267.417,302.002 265.5,296C 274.567,293.137 283.234,289.137 291.5,284C 297.544,279.138 302.211,273.305 305.5,266.5 Z"/></g>
<g><path style="opacity:0.974" fill="#3dd0ae" d="M 87.5,61.5 C 90.0562,62.5434 92.2228,64.2101 94,66.5C 98.6436,72.6446 103.477,78.6446 108.5,84.5C 94.7044,96.7899 82.2044,110.123 71,124.5C 62.3989,119.062 54.2323,113.062 46.5,106.5C 58.4,89.9314 72.0667,74.9314 87.5,61.5 Z"/></g>
<g><path style="opacity:0.978" fill="#3dd0ad" d="M 465.5,111.5 C 467.017,111.511 468.184,112.177 469,113.5C 479.531,129.727 488.364,146.893 495.5,165C 495.18,166.653 494.18,167.653 492.5,168C 484.333,171.167 476.167,174.333 468,177.5C 460.351,160.704 451.518,144.538 441.5,129C 449.402,122.917 457.402,117.083 465.5,111.5 Z"/></g>
<g><path style="opacity:0.977" fill="#3dd0ae" d="M 16.5,160.5 C 26.7212,163.346 36.3879,167.346 45.5,172.5C 38.3354,189.158 33.6687,206.492 31.5,224.5C 21.1667,223.167 10.8333,221.833 0.5,220.5C 3.33964,199.806 8.67298,179.806 16.5,160.5 Z"/></g>
<g><path style="opacity:0.979" fill="#3cd0ae" d="M 511.5,232.5 C 511.5,247.833 511.5,263.167 511.5,278.5C 510.523,281.287 510.19,284.287 510.5,287.5C 500.124,286.911 489.791,285.911 479.5,284.5C 480.62,266.148 480.787,247.815 480,229.5C 490.104,227.988 500.27,226.654 510.5,225.5C 510.198,228.059 510.532,230.393 511.5,232.5 Z"/></g>
<g><path style="opacity:0.977" fill="#3dd0ae" d="M -0.5,287.5 C -0.5,285.167 -0.5,282.833 -0.5,280.5C 9.87136,279.8 20.2047,278.8 30.5,277.5C 31.8197,295.778 35.8197,313.445 42.5,330.5C 32.9954,335.24 22.9954,338.907 12.5,341.5C 6.88023,323.692 2.5469,305.692 -0.5,287.5 Z"/></g>
<g><path style="opacity:0.978" fill="#3dd0ae" d="M 465.5,335.5 C 473.812,338.653 482.146,341.82 490.5,345C 492.223,345.523 493.556,346.523 494.5,348C 487.328,367.528 477.495,385.361 465,401.5C 456.368,396.104 448.202,390.104 440.5,383.5C 450.935,368.631 459.268,352.631 465.5,335.5 Z"/></g>
<g><path style="opacity:0.979" fill="#3dd0ae" d="M 64.5,379.5 C 65.8221,379.33 66.9887,379.663 68,380.5C 78.0003,395.176 89.5003,408.676 102.5,421C 95.218,428.404 88.0513,435.904 81,443.5C 65.6257,429.137 52.1257,413.303 40.5,396C 48.6785,390.637 56.6785,385.137 64.5,379.5 Z"/></g>
<g><path style="opacity:0.977" fill="#3cd0ae" d="M 403.5,424.5 C 406.394,425.882 408.894,427.882 411,430.5C 415.333,435.5 419.667,440.5 424,445.5C 424.667,446.5 424.667,447.5 424,448.5C 408.779,462.342 391.946,473.509 373.5,482C 368.451,473.404 363.785,464.571 359.5,455.5C 375.317,446.665 389.983,436.331 403.5,424.5 Z"/></g>
<g><path style="opacity:0.975" fill="#3cd0ae" d="M 144.5,452.5 C 161.304,460.661 178.638,467.661 196.5,473.5C 193.422,483.065 190.756,492.731 188.5,502.5C 168.226,497.684 149.059,490.018 131,479.5C 130.333,478.5 130.333,477.5 131,476.5C 135.777,468.607 140.277,460.607 144.5,452.5 Z"/></g>
<g><path style="opacity:0.98" fill="#3dd0ae" d="M 277.5,511.5 C 267.5,511.5 257.5,511.5 247.5,511.5C 248.267,501.185 248.601,490.852 248.5,480.5C 269.394,481.364 290.061,479.364 310.5,474.5C 312.18,483.887 314.18,493.221 316.5,502.5C 316.167,503.167 315.833,503.833 315.5,504.5C 302.862,507.715 290.195,510.049 277.5,511.5 Z"/></g>
</svg>
