<?xml version="1.0" encoding="UTF-8"?>
<!DOCTYPE svg PUBLIC "-//W3C//DTD SVG 1.1//EN" "http://www.w3.org/Graphics/SVG/1.1/DTD/svg11.dtd">
<svg xmlns="http://www.w3.org/2000/svg" version="1.1" width="512px" height="512px" style="shape-rendering:geometricPrecision; text-rendering:geometricPrecision; image-rendering:optimizeQuality; fill-rule:evenodd; clip-rule:evenodd" xmlns:xlink="http://www.w3.org/1999/xlink">
<g><path style="opacity:0.992" fill="#3dd0ae" d="M 193.5,-0.5 C 207.5,-0.5 221.5,-0.5 235.5,-0.5C 273.387,3.7971 308.053,16.7971 339.5,38.5C 352.051,17.2731 370.384,4.27314 394.5,-0.5C 402.5,-0.5 410.5,-0.5 418.5,-0.5C 451.242,6.90709 471.909,26.9071 480.5,59.5C 487.841,59.3337 495.174,59.5003 502.5,60C 506.685,61.6878 509.685,64.5212 511.5,68.5C 511.5,72.5 511.5,76.5 511.5,80.5C 509.685,84.4788 506.685,87.3122 502.5,89C 495.508,89.4996 488.508,89.6663 481.5,89.5C 481.5,99.5 481.5,109.5 481.5,119.5C 488.508,119.334 495.508,119.5 502.5,120C 506.685,121.688 509.685,124.521 511.5,128.5C 511.5,132.5 511.5,136.5 511.5,140.5C 509.685,144.479 506.685,147.312 502.5,149C 495.508,149.5 488.508,149.666 481.5,149.5C 481.5,159.5 481.5,169.5 481.5,179.5C 488.508,179.334 495.508,179.5 502.5,180C 506.685,181.688 509.685,184.521 511.5,188.5C 511.5,192.5 511.5,196.5 511.5,200.5C 509.685,204.479 506.685,207.312 502.5,209C 495.508,209.5 488.508,209.666 481.5,209.5C 481.5,219.5 481.5,229.5 481.5,239.5C 488.508,239.334 495.508,239.5 502.5,240C 506.685,241.688 509.685,244.521 511.5,248.5C 511.5,252.5 511.5,256.5 511.5,260.5C 509.685,264.479 506.685,267.312 502.5,269C 495.508,269.5 488.508,269.666 481.5,269.5C 481.5,279.5 481.5,289.5 481.5,299.5C 488.508,299.334 495.508,299.5 502.5,300C 506.685,301.688 509.685,304.521 511.5,308.5C 511.5,312.5 511.5,316.5 511.5,320.5C 509.685,324.479 506.685,327.312 502.5,329C 495.508,329.5 488.508,329.666 481.5,329.5C 481.351,330.552 481.517,331.552 482,332.5C 497.711,349.255 507.544,368.921 511.5,391.5C 511.5,401.5 511.5,411.5 511.5,421.5C 501.044,471.623 470.711,501.623 420.5,511.5C 411.167,511.5 401.833,511.5 392.5,511.5C 338.245,500.575 307.912,467.575 301.5,412.5C 252.814,431.914 203.147,434.748 152.5,421C 86.1111,399.278 39.6111,356.112 13,291.5C 6.3793,273.203 1.8793,254.536 -0.5,235.5C -0.5,221.5 -0.5,207.5 -0.5,193.5C 10.4992,112.643 52.4992,54.143 125.5,18C 147.37,8.42468 170.037,2.25801 193.5,-0.5 Z M 213.5,29.5 C 257.465,30.4135 296.632,44.4135 331,71.5C 331.5,132.499 331.667,193.499 331.5,254.5C 300.832,254.333 270.165,254.5 239.5,255C 211.169,264.481 200.002,283.981 206,313.5C 211.771,329.605 222.938,339.772 239.5,344C 266.5,344.333 293.5,344.667 320.5,345C 314.174,354.318 309.174,364.318 305.5,375C 252.145,403.335 197.478,406.335 141.5,384C 85.8693,358.035 50.2027,315.368 34.5,256C 57.8333,255.667 81.1667,255.333 104.5,255C 133.179,245.316 144.179,225.649 137.5,196C 155.5,195.667 173.5,195.333 191.5,195C 227.321,185.158 243.487,161.658 240,124.5C 233.807,98.3066 217.64,82.1399 191.5,76C 159.167,75.6667 126.833,75.3333 94.5,75C 128.803,45.8501 168.47,30.6835 213.5,29.5 Z M 405.5,29.5 C 428.722,31.1874 443.555,43.1874 450,65.5C 451.311,158.813 451.978,252.146 452,345.5C 456.957,352.126 462.291,358.46 468,364.5C 481.532,386.183 484.199,409.183 476,433.5C 462.574,463.402 439.407,479.402 406.5,481.5C 373.593,479.402 350.426,463.402 337,433.5C 328.801,409.183 331.468,386.183 345,364.5C 350.709,358.46 356.043,352.126 361,345.5C 361.022,252.146 361.689,158.813 363,65.5C 369.136,43.8535 383.303,31.8535 405.5,29.5 Z M 65.5,105.5 C 106.197,105.041 146.864,105.541 187.5,107C 198.667,110.167 205.833,117.333 209,128.5C 211.504,142.339 207.004,153.173 195.5,161C 192.911,162.197 190.244,163.197 187.5,164C 154.53,165.282 121.53,165.949 88.5,166C 80.0851,170.348 77.2517,177.181 80,186.5C 84.1706,194.007 90.6706,197.507 99.5,197C 108.83,202.282 110.996,209.782 106,219.5C 102.888,222.806 99.0547,224.639 94.5,225C 73.1693,225.5 51.8359,225.667 30.5,225.5C 28.2107,181.306 39.8773,141.306 65.5,105.5 Z M 249.5,284.5 C 276.833,284.5 304.167,284.5 331.5,284.5C 331.5,294.5 331.5,304.5 331.5,314.5C 302.458,314.959 273.458,314.459 244.5,313C 236.695,309.219 233.862,303.053 236,294.5C 238.68,288.589 243.18,285.255 249.5,284.5 Z M 401.5,392.5 C 418.286,392.073 423.786,399.739 418,415.5C 411.803,421.104 404.969,421.937 397.5,418C 391.896,411.803 391.063,404.969 395,397.5C 396.965,395.45 399.132,393.783 401.5,392.5 Z"/></g>
<g><path style="opacity:0.994" fill="#3dcfad" d="M 400.5,59.5 C 409.822,57.2511 416.655,60.2511 421,68.5C 421.333,166.833 421.667,265.167 422,363.5C 446.513,374.86 455.846,393.86 450,420.5C 439.065,446.052 419.898,455.886 392.5,450C 366.948,439.065 357.114,419.898 363,392.5C 367.936,378.565 377.269,368.898 391,363.5C 391.333,265.167 391.667,166.833 392,68.5C 393.688,64.3148 396.521,61.3148 400.5,59.5 Z M 401.5,392.5 C 399.132,393.783 396.965,395.45 395,397.5C 391.063,404.969 391.896,411.803 397.5,418C 404.969,421.937 411.803,421.104 418,415.5C 423.786,399.739 418.286,392.073 401.5,392.5 Z"/></g>
</svg>
