<?xml version="1.0" encoding="UTF-8"?>
<!DOCTYPE svg PUBLIC "-//W3C//DTD SVG 1.1//EN" "http://www.w3.org/Graphics/SVG/1.1/DTD/svg11.dtd">
<svg xmlns="http://www.w3.org/2000/svg" version="1.1" width="512px" height="512px" style="shape-rendering:geometricPrecision; text-rendering:geometricPrecision; image-rendering:optimizeQuality; fill-rule:evenodd; clip-rule:evenodd" xmlns:xlink="http://www.w3.org/1999/xlink">
<g><path style="opacity:0.993" fill="#3dd0ae" d="M -0.5,138.5 C -0.5,136.5 -0.5,134.5 -0.5,132.5C 10.1647,100.662 28.8313,74.4953 55.5,54C 84.2975,35.0686 115.964,27.2353 150.5,30.5C 150.5,60.5 150.5,90.5 150.5,120.5C 160.5,120.5 170.5,120.5 180.5,120.5C 180.5,100.5 180.5,80.5 180.5,60.5C 190.5,60.5 200.5,60.5 210.5,60.5C 210.5,80.5 210.5,100.5 210.5,120.5C 220.5,120.5 230.5,120.5 240.5,120.5C 240.5,110.5 240.5,100.5 240.5,90.5C 250.5,90.5 260.5,90.5 270.5,90.5C 270.5,100.5 270.5,110.5 270.5,120.5C 273.187,120.664 275.854,120.497 278.5,120C 306,93.1667 333.5,66.3333 361,39.5C 361.667,103.5 361.667,167.5 361,231.5C 333.5,204.667 306,177.833 278.5,151C 275.854,150.503 273.187,150.336 270.5,150.5C 270.5,160.5 270.5,170.5 270.5,180.5C 260.5,180.5 250.5,180.5 240.5,180.5C 240.5,170.5 240.5,160.5 240.5,150.5C 230.5,150.5 220.5,150.5 210.5,150.5C 210.5,170.5 210.5,190.5 210.5,210.5C 200.5,210.5 190.5,210.5 180.5,210.5C 180.5,190.5 180.5,170.5 180.5,150.5C 170.5,150.5 160.5,150.5 150.5,150.5C 150.5,180.5 150.5,210.5 150.5,240.5C 89.4005,245.039 43.5672,221.039 13,168.5C 7.79806,158.691 3.29806,148.691 -0.5,138.5 Z M 119.5,61.5 C 120.499,110.33 120.832,159.33 120.5,208.5C 84.9635,203.796 58.4635,185.796 41,154.5C 37.615,148.398 34.7816,142.065 32.5,135.5C 47.5141,94.1364 76.5141,69.4697 119.5,61.5 Z M 330.5,112.5 C 331.661,127.661 331.828,142.994 331,158.5C 323.319,150.986 315.819,143.319 308.5,135.5C 315.855,127.813 323.188,120.146 330.5,112.5 Z"/></g>
<g><path style="opacity:1" fill="#3dd0ad" d="M 60.5,120.5 C 70.5,120.5 80.5,120.5 90.5,120.5C 90.5,130.5 90.5,140.5 90.5,150.5C 80.5,150.5 70.5,150.5 60.5,150.5C 60.5,140.5 60.5,130.5 60.5,120.5 Z"/></g>
<g><path style="opacity:0.997" fill="#3cd0ae" d="M 511.5,272.5 C 511.5,341.833 511.5,411.167 511.5,480.5C 461.5,480.5 411.5,480.5 361.5,480.5C 361.333,411.166 361.5,341.833 362,272.5C 363.381,265.643 365.381,258.977 368,252.5C 373.396,241.375 379.063,230.375 385,219.5C 387.066,214.637 388.732,209.637 390,204.5C 391.42,176.528 391.92,148.528 391.5,120.5C 421.5,120.5 451.5,120.5 481.5,120.5C 481.08,148.528 481.58,176.528 483,204.5C 484.268,209.637 485.934,214.637 488,219.5C 494.271,231.041 500.271,242.708 506,254.5C 507.857,260.623 509.691,266.623 511.5,272.5 Z M 421.5,150.5 C 431.5,150.5 441.5,150.5 451.5,150.5C 451.5,160.5 451.5,170.5 451.5,180.5C 441.5,180.5 431.5,180.5 421.5,180.5C 421.5,170.5 421.5,160.5 421.5,150.5 Z M 420.5,210.5 C 431.187,210.168 441.854,210.501 452.5,211.5C 454.819,220.472 457.986,229.139 462,237.5C 467.914,248.162 473.414,258.995 478.5,270C 469.506,270.5 460.506,270.666 451.5,270.5C 451.5,280.5 451.5,290.5 451.5,300.5C 461.5,300.5 471.5,300.5 481.5,300.5C 481.5,310.5 481.5,320.5 481.5,330.5C 471.5,330.5 461.5,330.5 451.5,330.5C 451.5,340.5 451.5,350.5 451.5,360.5C 461.5,360.5 471.5,360.5 481.5,360.5C 481.5,370.5 481.5,380.5 481.5,390.5C 471.5,390.5 461.5,390.5 451.5,390.5C 451.5,400.5 451.5,410.5 451.5,420.5C 461.5,420.5 471.5,420.5 481.5,420.5C 481.5,430.5 481.5,440.5 481.5,450.5C 451.5,450.5 421.5,450.5 391.5,450.5C 391.5,440.5 391.5,430.5 391.5,420.5C 401.5,420.5 411.5,420.5 421.5,420.5C 421.5,410.5 421.5,400.5 421.5,390.5C 411.5,390.5 401.5,390.5 391.5,390.5C 391.5,380.5 391.5,370.5 391.5,360.5C 401.5,360.5 411.5,360.5 421.5,360.5C 421.5,350.5 421.5,340.5 421.5,330.5C 411.5,330.5 401.5,330.5 391.5,330.5C 391.5,320.5 391.5,310.5 391.5,300.5C 401.5,300.5 411.5,300.5 421.5,300.5C 421.5,290.5 421.5,280.5 421.5,270.5C 412.494,270.666 403.494,270.5 394.5,270C 399.919,258.329 405.753,246.829 412,235.5C 415.934,227.53 418.768,219.196 420.5,210.5 Z"/></g>
<g><path style="opacity:0.991" fill="#3dd0ae" d="M -0.5,341.5 C -0.5,337.833 -0.5,334.167 -0.5,330.5C 9.83333,330.5 20.1667,330.5 30.5,330.5C 31.6557,345.164 39.3224,354.664 53.5,359C 55.8098,359.497 58.1432,359.663 60.5,359.5C 56.5845,325.176 68.9178,298.676 97.5,280C 114.12,271.243 131.787,268.077 150.5,270.5C 150.334,280.506 150.5,290.506 151,300.5C 153.796,321.96 165.963,331.46 187.5,329C 201.32,324.542 208.82,315.042 210,300.5C 210.5,290.506 210.666,280.506 210.5,270.5C 249.177,266.25 277.343,281.25 295,315.5C 296.333,319.5 297.667,323.5 299,327.5C 300.119,343.463 300.619,359.463 300.5,375.5C 300.619,391.537 300.119,407.537 299,423.5C 289.657,454.511 269.157,473.344 237.5,480C 228.506,480.5 219.506,480.666 210.5,480.5C 210.666,470.494 210.5,460.494 210,450.5C 207.204,429.04 195.037,419.54 173.5,422C 159.318,426.186 151.818,435.686 151,450.5C 150.5,460.494 150.334,470.494 150.5,480.5C 111.823,484.75 83.6566,469.75 66,435.5C 60.9572,420.932 59.1238,405.932 60.5,390.5C 36.9803,390.449 19.1469,380.449 7,360.5C 3.87923,354.282 1.37923,347.949 -0.5,341.5 Z M 119.5,303.5 C 120.665,351.332 120.832,399.332 120,447.5C 102.064,439.228 92.3978,425.228 91,405.5C 90.3333,385.5 90.3333,365.5 91,345.5C 92.3184,325.841 101.818,311.841 119.5,303.5 Z M 240.5,303.5 C 258.715,311.557 268.548,325.557 270,345.5C 270.667,365.5 270.667,385.5 270,405.5C 268.602,425.228 258.936,439.228 241,447.5C 240.5,399.501 240.333,351.501 240.5,303.5 Z M 150.5,353.5 C 170.167,362.803 189.834,362.803 209.5,353.5C 210.666,368.155 210.833,382.822 210,397.5C 190.505,388.182 171.005,388.182 151.5,397.5C 150.501,382.848 150.167,368.182 150.5,353.5 Z"/></g>
</svg>
