<?xml version="1.0" encoding="UTF-8"?>
<!DOCTYPE svg PUBLIC "-//W3C//DTD SVG 1.1//EN" "http://www.w3.org/Graphics/SVG/1.1/DTD/svg11.dtd">
<svg xmlns="http://www.w3.org/2000/svg" version="1.1" width="512px" height="512px" style="shape-rendering:geometricPrecision; text-rendering:geometricPrecision; image-rendering:optimizeQuality; fill-rule:evenodd; clip-rule:evenodd" xmlns:xlink="http://www.w3.org/1999/xlink">
<g><path style="opacity:0.998" fill="#0dfefe" d="M 12.5,-0.5 C 22.5,-0.5 32.5,-0.5 42.5,-0.5C 125.887,9.25813 190.721,48.9248 237,118.5C 243.68,129.859 249.847,141.526 255.5,153.5C 291.785,75.392 351.785,25.892 435.5,5C 446.575,2.73083 457.575,0.897494 468.5,-0.5C 478.5,-0.5 488.5,-0.5 498.5,-0.5C 500.769,0.97576 503.102,2.47576 505.5,4C 507.752,6.73612 509.752,9.56945 511.5,12.5C 511.5,22.5 511.5,32.5 511.5,42.5C 499.374,140.434 449.041,210.934 360.5,254C 333.318,265.712 304.984,272.879 275.5,275.5C 275.5,315.5 275.5,355.5 275.5,395.5C 360.232,400.018 436.899,426.851 505.5,476C 507.752,478.736 509.752,481.569 511.5,484.5C 511.5,489.167 511.5,493.833 511.5,498.5C 508.744,504.923 504.078,509.257 497.5,511.5C 493.167,511.5 488.833,511.5 484.5,511.5C 378.229,434.337 262.229,415.837 136.5,456C 95.6927,469.739 57.3594,488.239 21.5,511.5C 18.8333,511.5 16.1667,511.5 13.5,511.5C 6.9222,509.257 2.25553,504.923 -0.5,498.5C -0.5,493.833 -0.5,489.167 -0.5,484.5C 1.24806,481.569 3.24806,478.736 5.5,476C 74.0975,426.853 150.764,400.019 235.5,395.5C 235.5,355.5 235.5,315.5 235.5,275.5C 146.065,265.902 78.2316,222.902 32,146.5C 14.184,113.892 3.35064,79.2255 -0.5,42.5C -0.5,32.5 -0.5,22.5 -0.5,12.5C 0.97576,10.2314 2.47576,7.89805 4,5.5C 6.73612,3.24806 9.56945,1.24806 12.5,-0.5 Z M 41.5,41.5 C 115.834,50.8959 171.667,87.8959 209,152.5C 222.721,177.829 230.888,204.829 233.5,233.5C 159.164,224.103 103.33,187.103 66,122.5C 52.2783,97.169 44.1116,70.169 41.5,41.5 Z M 461.5,41.5 C 464.167,41.5 466.833,41.5 469.5,41.5C 460.102,115.839 423.102,171.672 358.5,209C 333.167,222.723 306.167,230.889 277.5,233.5C 286.897,159.164 323.897,103.33 388.5,66C 411.636,53.8994 435.969,45.7328 461.5,41.5 Z"/></g>
</svg>
