<?xml version="1.0" standalone="no"?>
<!DOCTYPE svg PUBLIC "-//W3C//DTD SVG 20010904//EN"
 "http://www.w3.org/TR/2001/REC-SVG-20010904/DTD/svg10.dtd">
<svg version="1.0" xmlns="http://www.w3.org/2000/svg"
 width="1024.000000pt" height="1024.000000pt" viewBox="0 0 1024.000000 1024.000000"
 preserveAspectRatio="xMidYMid meet">

<g transform="translate(0.000000,1024.000000) scale(0.100000,-0.100000)"
fill="#000000" stroke="none">
<path d="M5589 9951 c-108 -35 -192 -114 -218 -206 -14 -53 -14 -173 1 -216
32 -95 119 -166 286 -234 100 -41 152 -80 152 -113 0 -12 -11 -34 -24 -49 -22
-25 -30 -28 -85 -27 -74 1 -138 31 -235 109 -38 30 -79 55 -91 55 -50 0 -155
-105 -155 -156 0 -59 71 -135 179 -193 281 -150 577 -100 681 114 34 71 40
188 12 247 -41 84 -110 140 -280 228 -155 81 -178 109 -127 164 49 53 155 28
290 -68 28 -20 62 -36 77 -36 48 0 148 106 148 158 0 37 -102 131 -191 174
-136 68 -302 87 -420 49z"/>
<path d="M4230 9933 c-78 -14 -274 -65 -300 -78 -54 -28 -53 -55 16 -408 78
-400 132 -631 151 -644 23 -18 55 -16 176 7 277 53 465 129 565 228 184 180
199 488 35 704 -49 64 -136 124 -224 154 -99 33 -326 53 -419 37z m292 -284
c50 -26 111 -84 129 -123 23 -50 26 -200 5 -249 -30 -72 -169 -155 -277 -164
-68 -7 -56 -31 -104 222 -20 105 -40 212 -45 238 -16 80 -15 85 28 90 63 8
240 -1 264 -14z"/>
<path d="M6653 9710 c-27 -11 -62 -79 -220 -430 -163 -361 -223 -503 -223
-527 0 -44 117 -113 191 -113 45 0 50 6 143 185 86 166 66 157 193 90 159 -84
188 -106 186 -138 -1 -15 -34 -82 -72 -150 -39 -67 -71 -132 -71 -143 0 -24
70 -93 119 -119 18 -9 49 -15 69 -13 33 3 43 11 87 70 55 73 468 756 485 801
7 22 6 35 -5 57 -20 38 -97 97 -147 112 -62 18 -71 9 -247 -260 -29 -45 -56
-84 -60 -86 -8 -5 -289 148 -310 169 -23 23 -15 57 42 182 31 66 62 142 69
168 12 45 12 48 -12 67 -29 24 -134 75 -170 82 -14 3 -35 1 -47 -4z"/>
<path d="M3250 9656 c-183 -75 -465 -206 -495 -230 -24 -20 -29 -30 -28 -64 3
-70 333 -871 381 -926 26 -29 90 -16 237 46 72 31 195 82 274 114 202 81 229
102 217 167 -9 48 -65 129 -96 140 -20 7 -67 -7 -234 -69 l-208 -78 -18 22
c-10 12 -26 43 -36 67 -21 57 -29 50 162 135 165 72 189 93 180 153 -7 45 -37
107 -60 126 -24 20 -79 8 -237 -54 -78 -30 -145 -55 -150 -55 -11 0 -59 94
-59 115 0 23 63 60 195 114 232 95 235 97 235 164 0 45 -26 112 -54 140 -29
29 -91 21 -206 -27z"/>
<path d="M2179 9102 c-83 -53 -414 -327 -476 -395 -49 -53 -51 -63 -24 -115
20 -40 410 -554 515 -680 57 -68 109 -112 134 -112 14 0 479 347 537 401 58
53 60 87 10 152 -78 102 -98 97 -348 -80 -86 -61 -153 -103 -162 -99 -26 10
-76 89 -73 115 2 18 37 51 132 126 158 123 170 137 156 186 -12 43 -73 117
-108 130 -29 11 -35 8 -226 -134 l-129 -96 -38 47 c-64 77 -66 72 161 264 69
58 131 117 139 131 13 24 11 31 -13 82 -30 61 -79 105 -117 105 -14 0 -45 -13
-70 -28z"/>
<path d="M7761 9013 c-32 -32 -89 -105 -128 -163 -38 -58 -143 -202 -232 -320
-171 -225 -201 -273 -201 -315 0 -32 57 -95 114 -125 l44 -24 35 31 c98 86
301 327 452 538 43 61 107 148 143 194 l64 83 -39 40 c-21 22 -60 58 -86 79
-70 56 -94 53 -166 -18z"/>
<path d="M8267 8691 c-20 -7 -74 -68 -297 -336 -92 -110 -202 -240 -244 -290
-88 -102 -136 -171 -136 -194 0 -9 17 -38 38 -65 45 -60 118 -102 159 -92 18
5 71 52 143 127 63 65 121 119 129 119 7 0 56 -38 107 -85 52 -47 112 -96 133
-111 37 -24 41 -25 70 -10 39 21 110 95 117 123 10 38 -3 57 -126 183 -66 68
-120 127 -120 131 0 5 24 33 53 64 l52 55 155 -145 c164 -153 220 -192 261
-182 13 3 48 28 77 55 91 84 81 101 -212 381 -253 241 -314 288 -359 272z"/>
<path d="M5120 8440 c0 -5 -7 -10 -15 -10 -8 0 -15 -7 -15 -15 0 -9 -6 -18
-14 -21 -8 -3 -17 -16 -20 -30 -4 -13 -11 -24 -16 -24 -6 0 -10 -7 -10 -15 0
-9 -6 -18 -14 -21 -8 -3 -18 -19 -21 -35 -4 -16 -10 -29 -15 -29 -4 0 -11 -11
-14 -25 -4 -14 -11 -25 -16 -25 -6 0 -10 -7 -10 -15 0 -9 -6 -18 -14 -21 -8
-3 -17 -16 -20 -30 -4 -13 -11 -24 -16 -24 -6 0 -10 -7 -10 -15 0 -9 -6 -18
-14 -21 -8 -3 -18 -19 -21 -35 -4 -16 -10 -29 -15 -29 -4 0 -11 -11 -14 -25
-4 -14 -10 -25 -15 -25 -5 0 -12 -13 -16 -30 -4 -16 -10 -30 -15 -30 -5 0 -11
-13 -15 -30 -4 -16 -10 -30 -15 -30 -5 0 -12 -15 -15 -32 -4 -18 -12 -36 -18
-40 -7 -4 -11 -52 -11 -128 0 -76 4 -124 11 -128 6 -4 14 -22 18 -39 3 -18 10
-33 15 -33 4 0 11 -11 14 -25 4 -14 11 -25 16 -25 6 0 10 -5 10 -11 0 -15 42
-59 58 -59 6 0 12 -4 12 -10 0 -17 38 -49 65 -56 14 -3 25 -10 25 -14 0 -5 25
-12 55 -15 30 -4 55 -11 55 -16 0 -5 7 -9 15 -9 8 0 15 5 15 10 0 6 7 10 15
10 8 0 15 -4 15 -10 0 -5 20 -10 45 -10 25 0 45 4 45 9 0 5 23 11 50 15 28 4
50 11 50 16 0 4 14 11 30 15 17 4 30 11 30 16 0 5 6 9 14 9 17 0 106 82 106
98 0 7 4 12 9 12 5 0 13 10 17 23 4 12 11 25 16 28 5 3 11 23 15 45 3 21 11
42 17 46 14 9 13 228 -1 237 -6 3 -14 21 -18 39 -3 17 -10 32 -15 32 -5 0 -11
14 -15 30 -4 17 -10 30 -15 30 -5 0 -11 14 -15 30 -4 17 -11 30 -16 30 -5 0
-11 11 -15 25 -3 14 -10 25 -15 25 -5 0 -9 7 -9 15 0 9 -6 18 -14 21 -8 3 -17
16 -20 30 -4 13 -11 24 -16 24 -6 0 -10 7 -10 15 0 9 -6 18 -14 21 -8 3 -18
19 -21 35 -4 16 -11 29 -16 29 -5 0 -11 11 -15 24 -3 14 -12 27 -20 30 -8 3
-14 12 -14 21 0 8 -4 15 -9 15 -5 0 -12 11 -15 25 -4 14 -11 25 -16 25 -6 0
-10 7 -10 15 0 9 -7 18 -15 21 -8 4 -15 12 -15 19 0 12 -44 65 -55 65 -3 0 -5
-4 -5 -10z"/>
<path d="M1300 8008 c-43 -16 -75 -40 -146 -112 -128 -129 -164 -212 -164
-380 0 -58 5 -83 29 -133 55 -116 160 -193 273 -201 70 -5 129 20 293 127 63
42 118 71 129 69 11 -2 27 -15 35 -29 36 -65 -32 -164 -144 -208 -97 -39 -105
-50 -105 -148 l0 -84 46 -20 c36 -16 56 -19 96 -14 76 11 183 69 252 139 115
115 151 209 144 370 -3 56 -11 115 -19 131 -51 114 -127 165 -246 165 -101 0
-160 -23 -304 -119 -67 -45 -131 -81 -144 -81 -17 0 -29 9 -40 30 -42 81 6
169 142 261 91 62 125 110 121 170 -3 36 -8 47 -37 66 -44 30 -133 30 -211 1z"/>
<path d="M8922 7991 c-66 -26 -112 -67 -112 -98 0 -14 27 -77 60 -140 l61
-113 -33 -31 c-18 -16 -138 -109 -267 -206 -267 -200 -321 -247 -321 -277 1
-35 39 -109 78 -148 66 -69 71 -66 471 210 128 89 237 162 241 162 4 0 31 -39
60 -87 107 -176 141 -207 207 -193 50 12 111 56 130 94 15 33 15 36 -14 98
-78 165 -399 676 -455 723 -35 29 -48 30 -106 6z"/>
<path d="M3210 7171 c0 -5 -52 -12 -115 -16 -63 -4 -115 -11 -115 -16 0 -4
-22 -11 -50 -15 -27 -4 -50 -10 -50 -15 0 -4 -20 -11 -45 -15 -25 -3 -45 -10
-45 -14 0 -5 -13 -11 -30 -15 -16 -4 -30 -10 -30 -15 0 -4 -10 -10 -21 -13
-20 -5 -21 -11 -16 -63 3 -31 10 -60 16 -63 5 -3 13 -19 16 -34 4 -15 11 -27
15 -27 4 0 10 -18 14 -40 3 -22 10 -40 15 -40 5 0 12 -16 15 -35 4 -19 11 -35
16 -35 6 0 13 -18 16 -40 4 -22 10 -40 14 -40 5 0 11 -13 15 -30 4 -16 10 -30
15 -30 5 0 11 -13 15 -30 4 -16 11 -30 16 -30 5 0 9 -7 9 -15 0 -7 6 -18 14
-22 7 -4 19 -25 25 -45 7 -21 16 -38 21 -38 5 0 11 -13 15 -29 3 -16 13 -32
21 -35 8 -3 14 -11 14 -17 0 -6 11 -22 24 -34 13 -12 27 -31 30 -43 4 -11 13
-23 21 -26 8 -3 15 -12 15 -20 0 -8 4 -16 8 -18 5 -1 25 -29 46 -60 21 -32 42
-58 46 -58 4 0 52 -43 106 -95 54 -52 104 -95 111 -95 7 0 13 -4 13 -10 0 -5
11 -12 24 -16 14 -3 27 -12 30 -20 3 -8 11 -14 17 -14 6 0 22 -11 35 -25 12
-13 34 -27 48 -31 14 -3 26 -10 26 -14 0 -5 14 -11 30 -15 17 -4 30 -10 30
-15 0 -5 14 -11 30 -15 17 -4 30 -11 30 -16 0 -5 18 -12 40 -15 22 -4 40 -10
40 -15 0 -4 21 -11 48 -15 26 -4 50 -12 54 -18 10 -15 366 -15 376 0 4 6 25
14 46 17 22 4 42 10 45 15 3 5 20 13 38 16 17 4 34 14 37 22 3 8 12 14 21 14
8 0 15 4 15 9 0 5 10 13 22 16 11 4 31 18 43 31 l21 23 80 -71 c118 -105 260
-246 304 -304 l40 -50 6 -357 7 -357 -1114 -1 c-613 -1 -1276 -4 -1474 -8
l-360 -6 -14 -29 c-16 -35 -6 -132 34 -313 91 -406 337 -905 606 -1228 123
-146 330 -356 441 -446 451 -362 1103 -642 1634 -700 63 -6 238 -9 455 -7 380
4 415 8 679 79 429 115 852 328 1193 602 140 113 438 412 523 527 235 315 415
674 512 1025 66 234 94 447 64 477 -20 20 -377 26 -1739 27 l-1223 1 0 243 c1
302 10 422 36 470 10 20 45 68 77 106 67 80 304 297 321 294 41 -7 103 -27
111 -37 14 -15 43 -32 85 -52 34 -15 49 -20 100 -31 14 -3 28 -11 32 -17 10
-15 356 -15 366 0 4 7 31 15 60 19 28 4 52 11 52 15 0 5 16 12 35 16 19 3 35
10 35 14 0 5 14 11 30 15 17 4 30 10 30 15 0 5 14 11 30 15 17 4 30 10 30 15
0 4 11 11 25 14 14 4 25 11 25 16 0 6 7 10 15 10 9 0 18 6 21 14 3 8 16 17 30
20 13 4 24 11 24 16 0 6 6 10 13 10 6 0 23 12 36 25 13 14 27 25 33 25 12 0
248 235 248 247 0 5 13 20 29 34 15 14 31 35 35 47 4 12 12 22 17 22 5 0 9 7
9 15 0 9 6 18 14 21 8 3 17 16 20 30 4 13 11 24 16 24 6 0 10 7 10 15 0 9 6
18 14 21 8 3 19 25 26 50 7 24 16 44 21 44 4 0 10 14 14 30 4 17 10 30 15 30
5 0 11 14 15 30 4 17 10 30 15 30 5 0 11 14 15 30 4 17 11 30 16 30 5 0 12 18
15 40 4 22 10 40 14 40 5 0 11 14 15 30 4 17 10 30 15 30 5 0 12 20 16 45 3
25 10 45 14 45 4 0 11 12 15 27 3 15 11 31 16 34 6 3 13 31 16 62 5 49 3 57
-11 57 -9 0 -19 6 -22 14 -3 7 -23 16 -45 20 -21 3 -39 10 -39 16 0 5 -20 12
-45 16 -25 3 -45 10 -45 14 0 5 -22 11 -50 15 -27 4 -50 10 -50 15 0 4 -40 11
-90 14 -49 4 -90 12 -90 17 0 14 -157 11 -163 -3 -4 -10 -8 -9 -16 2 -6 8 -11
10 -11 4 0 -7 -47 -13 -132 -18 -73 -3 -134 -10 -137 -15 -4 -5 -32 -12 -63
-16 -32 -4 -58 -11 -58 -15 0 -4 -20 -11 -45 -14 -25 -4 -45 -11 -45 -15 0 -5
-20 -12 -45 -15 -25 -4 -45 -11 -45 -16 0 -6 -18 -13 -40 -16 -22 -4 -40 -10
-40 -14 0 -5 -13 -11 -30 -15 -16 -4 -30 -10 -30 -15 0 -5 -13 -11 -29 -15
-16 -3 -32 -13 -35 -21 -3 -8 -12 -14 -21 -14 -8 0 -15 -4 -15 -10 0 -5 -11
-12 -24 -16 -14 -3 -27 -12 -30 -20 -3 -8 -10 -14 -16 -14 -7 0 -25 -13 -42
-30 -16 -16 -34 -30 -39 -30 -14 0 -59 -51 -59 -66 0 -8 -5 -14 -11 -14 -15 0
-119 -104 -119 -119 0 -6 -4 -11 -9 -11 -5 0 -13 -10 -16 -22 -4 -11 -17 -31
-29 -42 -13 -12 -25 -29 -29 -38 -3 -10 -11 -18 -16 -18 -5 0 -12 -13 -16 -30
-4 -16 -10 -30 -15 -30 -5 0 -11 -13 -15 -30 -4 -16 -10 -30 -15 -30 -4 0 -10
-18 -14 -40 -3 -22 -10 -40 -15 -40 -5 0 -12 -19 -16 -42 -4 -24 -11 -45 -16
-48 -8 -5 -15 -195 -9 -261 3 -32 -2 -41 -40 -75 -24 -21 -85 -76 -135 -122
-98 -90 -153 -122 -206 -122 -86 0 -121 24 -324 220 -66 63 -84 85 -67 82 l24
-5 -4 148 c-2 104 -7 150 -15 152 -7 3 -15 27 -19 54 -4 27 -10 49 -14 49 -5
0 -11 14 -15 30 -4 17 -10 30 -15 30 -5 0 -11 14 -15 30 -4 17 -11 30 -16 30
-5 0 -9 6 -9 14 0 8 -6 21 -14 28 -7 8 -17 25 -21 38 -4 13 -21 35 -36 49 -16
14 -29 29 -29 34 0 5 -18 26 -39 47 -21 21 -42 47 -45 58 -4 11 -18 23 -31 26
-14 4 -25 10 -25 15 0 12 -69 81 -83 81 -7 1 -23 14 -37 30 -13 17 -30 30 -37
30 -7 0 -13 4 -13 9 0 5 -11 12 -25 15 -14 4 -25 11 -25 16 0 6 -7 10 -15 10
-9 0 -18 6 -21 14 -3 8 -19 18 -35 21 -16 4 -29 11 -29 16 0 5 -18 12 -40 15
-22 4 -40 10 -40 15 0 5 -7 9 -15 9 -9 0 -18 6 -21 14 -3 7 -23 16 -45 20 -21
3 -39 10 -39 15 0 5 -22 11 -50 15 -27 4 -50 11 -50 15 0 5 -25 12 -55 16 -30
3 -55 10 -55 15 0 4 -54 11 -120 15 -66 4 -120 11 -120 16 0 5 -49 9 -110 9
-60 0 -110 -4 -110 -9z m393 -2809 c33 -35 34 -57 3 -103 -47 -68 -166 -127
-299 -149 -88 -14 -145 -4 -179 31 -36 36 -36 71 1 102 24 20 44 25 121 30
100 8 146 23 231 81 65 43 87 45 122 8z m3198 -13 c82 -53 126 -68 219 -75 93
-7 127 -19 145 -53 19 -37 -2 -83 -46 -102 -98 -41 -324 15 -417 104 -67 64
-75 108 -25 147 36 28 51 26 124 -21z m-2313 -2 c18 -17 22 -30 20 -61 -3 -37
-11 -47 -98 -124 -52 -46 -135 -118 -185 -159 -49 -41 -130 -109 -179 -152
-90 -77 -122 -100 -143 -101 -18 0 -73 60 -73 80 0 28 92 133 178 203 42 34
123 103 180 152 57 50 133 114 169 143 70 57 87 59 131 19z m1414 -9 c29 -23
100 -83 158 -133 58 -50 139 -119 181 -153 100 -80 199 -189 199 -217 0 -27
-33 -72 -61 -80 -25 -8 -53 9 -144 90 -38 34 -102 89 -142 121 -166 136 -313
266 -323 284 -23 43 -1 102 44 120 31 13 30 13 88 -32z m-3131 -69 c9 -4 22
-21 28 -38 16 -38 -7 -87 -47 -98 -44 -13 -304 -9 -328 5 -12 6 -27 25 -34 43
-11 27 -11 35 2 58 27 44 67 52 223 45 77 -3 147 -10 156 -15z m5051 11 c67
-19 88 -81 43 -125 -23 -24 -28 -25 -174 -25 -82 0 -161 4 -175 10 -14 5 -32
23 -41 40 -15 29 -15 33 2 63 10 17 30 34 43 38 40 11 261 10 302 -1z m-2861
-279 c16 -17 29 -40 29 -54 0 -34 -77 -135 -181 -238 -64 -63 -90 -96 -98
-125 -7 -24 -11 -160 -11 -359 l0 -321 -56 -69 c-30 -39 -102 -121 -160 -183
l-104 -112 0 -96 c0 -105 -12 -141 -55 -164 -23 -12 -30 -12 -53 1 -15 8 -32
26 -39 39 -16 31 -17 219 -3 272 7 25 46 76 118 155 59 65 124 141 145 170
l37 51 0 173 c0 96 -3 204 -6 240 l-7 67 -61 -36 c-33 -19 -104 -63 -156 -97
-52 -34 -115 -73 -140 -85 -130 -66 -298 -205 -323 -268 -9 -21 -20 -72 -26
-113 -12 -91 -32 -149 -73 -211 -36 -57 -63 -78 -98 -78 -30 1 -52 16 -70 49
-11 22 -8 32 30 105 24 46 44 101 47 128 7 57 16 55 -162 33 -154 -19 -152
-19 -180 10 -46 45 -23 126 38 140 12 2 66 9 120 15 154 16 189 33 454 222 88
62 187 129 222 148 251 140 485 330 658 533 86 101 112 110 164 58z m534 -81
c160 -184 347 -336 596 -484 69 -41 183 -116 255 -167 272 -194 308 -212 476
-230 129 -15 144 -21 164 -61 19 -40 8 -79 -30 -104 -24 -15 -35 -15 -159 0
-193 23 -181 25 -172 -31 4 -26 24 -82 46 -125 21 -43 39 -85 39 -93 0 -28
-47 -65 -81 -65 -62 0 -141 126 -161 257 -20 129 -36 171 -81 214 -63 62 -198
160 -264 193 -32 16 -72 39 -89 52 -18 13 -87 57 -155 98 l-124 75 -9 -235 -9
-235 39 -56 c21 -31 77 -97 124 -147 133 -142 141 -154 151 -243 6 -43 7 -107
3 -142 -5 -53 -11 -70 -34 -93 -36 -35 -52 -35 -92 1 -32 29 -32 30 -36 137
l-4 108 -110 120 c-61 67 -130 146 -153 176 l-43 56 -5 329 c-2 202 -8 343
-15 364 -7 20 -53 76 -115 140 -111 114 -167 188 -167 219 0 11 13 34 30 52
23 25 36 31 61 28 27 -2 48 -21 124 -108z m-1759 -174 c19 -19 34 -40 34 -47
0 -29 -42 -81 -87 -110 -65 -40 -125 -57 -259 -70 -101 -11 -116 -10 -138 5
-40 26 -59 61 -51 96 10 47 38 59 174 70 136 12 147 15 216 59 27 17 55 31 63
31 8 0 29 -15 48 -34z m2918 -3 c61 -37 67 -39 285 -60 87 -8 126 -66 86 -127
-28 -42 -61 -49 -182 -37 -165 17 -232 41 -298 106 -45 46 -47 85 -6 126 16
16 35 29 43 29 7 0 39 -16 72 -37z m-1469 -67 c32 -32 38 -91 33 -322 -3 -199
-8 -220 -53 -250 -21 -14 -26 -14 -54 0 -53 28 -55 41 -55 291 0 238 3 261 43
292 25 19 60 15 86 -11z m2343 -24 c25 -16 52 -61 52 -87 0 -48 -67 -115 -117
-115 -31 0 -80 45 -93 86 -10 29 -9 40 7 72 22 42 77 75 108 65 11 -3 30 -13
43 -21z m-4670 2 c27 -19 52 -65 52 -96 0 -71 -86 -126 -147 -94 -44 22 -76
78 -68 116 15 68 109 112 163 74z m2321 -799 c34 -17 39 -27 57 -129 14 -84
15 -84 112 -182 76 -77 93 -114 100 -225 l5 -85 -32 -27 c-35 -29 -60 -33 -91
-17 -29 15 -41 45 -50 119 -8 63 -11 68 -68 123 -33 32 -68 58 -78 58 -9 0
-43 -26 -75 -57 -53 -54 -58 -62 -64 -118 -12 -94 -40 -135 -95 -135 -12 0
-35 14 -52 31 -31 30 -31 31 -24 111 9 108 24 140 110 228 85 86 92 97 101
165 10 77 24 113 52 135 30 24 54 25 92 5z"/>
<path d="M820 5841 c0 -6 -7 -11 -15 -11 -8 0 -15 -6 -15 -14 0 -8 -7 -16 -15
-20 -8 -3 -15 -12 -15 -21 0 -8 -4 -15 -10 -15 -5 0 -12 -11 -16 -24 -3 -14
-12 -27 -20 -30 -8 -3 -14 -12 -14 -21 0 -8 -4 -15 -9 -15 -5 0 -12 -13 -16
-30 -4 -16 -11 -30 -16 -30 -5 0 -11 -11 -15 -24 -3 -14 -12 -27 -20 -30 -8
-3 -14 -12 -14 -21 0 -8 -4 -15 -10 -15 -5 0 -12 -11 -16 -24 -3 -14 -12 -27
-20 -30 -8 -3 -14 -12 -14 -21 0 -8 -4 -15 -9 -15 -5 0 -12 -13 -16 -30 -4
-16 -11 -30 -16 -30 -5 0 -11 -11 -15 -25 -3 -14 -10 -25 -14 -25 -5 0 -11
-13 -15 -30 -4 -16 -10 -30 -15 -30 -4 0 -11 -12 -15 -27 -3 -15 -11 -31 -16
-34 -6 -3 -13 -31 -16 -62 -3 -32 -10 -57 -14 -57 -5 0 -9 -22 -9 -50 0 -27 4
-50 9 -50 4 0 11 -25 14 -57 3 -31 10 -59 16 -62 5 -3 13 -19 16 -34 4 -15 11
-27 15 -27 5 0 12 -10 15 -22 9 -25 53 -68 70 -68 7 0 16 -11 19 -25 4 -15 16
-27 31 -31 14 -3 25 -10 25 -14 0 -5 15 -12 33 -15 17 -4 35 -12 39 -18 9 -15
256 -16 266 -1 4 6 24 14 45 18 20 4 37 11 37 15 0 5 11 12 25 15 28 7 121 96
130 126 3 11 10 20 15 20 5 0 11 14 15 30 4 17 10 30 15 30 4 0 10 23 14 50 4
28 11 50 16 50 6 0 10 27 10 60 0 33 -4 60 -9 60 -4 0 -11 25 -14 57 -3 31
-10 59 -16 62 -5 3 -13 19 -16 34 -4 15 -11 27 -15 27 -5 0 -11 14 -15 30 -4
17 -10 30 -15 30 -4 0 -11 11 -14 25 -4 14 -10 25 -15 25 -5 0 -12 13 -16 29
-3 16 -13 32 -21 35 -8 3 -14 12 -14 21 0 8 -4 15 -10 15 -5 0 -12 11 -16 24
-3 14 -12 27 -20 30 -8 3 -14 12 -14 21 0 8 -4 15 -9 15 -5 0 -12 11 -15 25
-4 14 -11 25 -16 25 -6 0 -10 7 -10 15 0 9 -6 18 -14 21 -8 3 -18 19 -21 35
-4 16 -11 29 -16 29 -5 0 -11 11 -15 24 -3 14 -12 27 -20 30 -8 3 -14 10 -14
16 0 7 -13 25 -30 42 -16 16 -30 25 -30 19z"/>
<path d="M9425 5825 c-11 -14 -27 -25 -35 -26 -10 0 -11 -2 -2 -6 20 -8 14
-20 -13 -27 -15 -4 -27 -16 -31 -30 -3 -14 -12 -27 -20 -30 -8 -3 -14 -12 -14
-21 0 -8 -4 -15 -9 -15 -5 0 -12 -11 -15 -25 -4 -14 -11 -25 -16 -25 -6 0 -10
-7 -10 -15 0 -9 -6 -18 -14 -21 -8 -3 -17 -16 -20 -30 -4 -13 -10 -24 -15 -24
-5 0 -12 -13 -16 -29 -3 -16 -13 -32 -21 -35 -8 -3 -14 -12 -14 -21 0 -8 -4
-15 -10 -15 -5 0 -12 -11 -16 -25 -3 -14 -10 -25 -14 -25 -5 0 -11 -13 -15
-29 -3 -16 -13 -32 -21 -35 -8 -3 -14 -12 -14 -21 0 -8 -4 -15 -9 -15 -5 0
-12 -13 -16 -30 -4 -16 -11 -30 -15 -30 -5 0 -12 -27 -16 -60 -4 -33 -11 -60
-15 -60 -5 0 -9 -34 -9 -75 0 -41 4 -75 9 -75 5 0 12 -20 15 -45 5 -31 12 -45
23 -45 9 0 13 -6 9 -15 -3 -9 0 -15 9 -15 18 0 20 -16 3 -23 -10 -4 -10 -6 0
-6 6 -1 12 -7 12 -15 0 -19 117 -136 136 -136 8 0 14 -4 14 -9 0 -5 15 -13 33
-16 17 -4 35 -13 39 -19 10 -15 256 -15 266 0 4 6 24 14 45 18 20 4 37 11 37
15 0 5 11 12 25 15 31 8 123 100 131 131 3 14 10 25 14 25 4 0 11 12 15 27 3
15 12 31 18 35 16 10 17 306 1 316 -6 4 -14 19 -18 35 -3 15 -11 27 -16 27 -6
0 -10 9 -10 19 0 11 -7 26 -15 34 -7 8 -17 26 -21 41 -3 14 -10 26 -15 26 -5
0 -9 7 -9 15 0 9 -6 18 -14 21 -8 3 -17 16 -20 30 -4 13 -10 24 -15 24 -5 0
-12 13 -16 29 -3 16 -13 32 -21 35 -8 3 -14 12 -14 21 0 8 -4 15 -10 15 -5 0
-12 11 -16 25 -3 14 -10 25 -15 25 -5 0 -9 7 -9 15 0 9 -6 18 -14 21 -8 3 -18
19 -21 35 -4 16 -11 29 -16 29 -5 0 -11 11 -15 24 -3 14 -12 27 -20 30 -8 3
-14 12 -14 21 0 8 -4 15 -9 15 -5 0 -12 11 -15 25 -8 31 -15 31 -41 0z"/>
<path d="M1535 3031 c-54 -25 -543 -346 -600 -394 -53 -45 -56 -67 -21 -142
77 -164 430 -622 686 -889 363 -380 874 -752 1377 -1005 226 -113 514 -223
867 -332 149 -46 441 -106 706 -146 180 -27 196 -28 585 -27 428 2 526 9 800
59 1254 230 2336 889 3083 1880 123 163 272 385 313 467 35 69 36 98 7 125
-58 53 -631 413 -658 413 -27 0 -74 -58 -150 -185 -367 -612 -943 -1131 -1646
-1483 -402 -202 -845 -332 -1334 -394 -141 -17 -698 -18 -840 0 -488 61 -933
193 -1354 404 -716 358 -1226 828 -1660 1531 -49 78 -97 137 -113 137 -4 0
-26 -9 -48 -19z m7134 -522 c95 -54 202 -139 220 -176 10 -19 8 -25 -13 -38
-14 -9 -34 -36 -46 -60 -35 -73 -112 -95 -183 -52 -85 52 -102 135 -41 208
l35 42 -24 21 c-31 26 -41 54 -26 72 15 18 14 19 78 -17z m-6953 -31 c5 -18
-2 -30 -40 -64 -53 -46 -176 -120 -224 -134 -24 -6 -36 -5 -47 6 -23 23 -6 44
81 104 157 108 216 131 230 88z m41 -215 c4 -10 26 -36 50 -59 36 -34 43 -47
43 -78 0 -31 -8 -46 -52 -92 -60 -64 -109 -97 -132 -88 -35 13 -16 53 66 141
42 45 47 56 38 73 -16 29 -31 25 -112 -30 -40 -27 -80 -50 -88 -50 -19 0 -40
19 -40 37 0 20 69 92 125 129 55 37 92 43 102 17z m6690 -50 c129 -98 195
-170 186 -203 -8 -31 -35 -24 -99 23 -99 73 -184 157 -184 181 0 48 33 48 97
-1z m-67 -158 c10 -12 10 -21 2 -40 -7 -14 -16 -25 -22 -25 -22 0 -8 -50 30
-103 50 -69 61 -112 32 -122 -28 -8 -61 14 -115 78 -84 100 -92 121 -54 138
12 5 30 23 39 40 15 25 45 46 69 48 4 1 12 -6 19 -14z m-6402 -61 c2 -18 -8
-56 -22 -89 -15 -32 -26 -59 -26 -61 0 -1 34 9 75 23 42 14 82 22 90 19 26
-10 17 -45 -17 -66 -44 -27 -190 -73 -219 -68 -34 4 -35 30 -4 113 52 143 115
209 123 129z m6217 -194 c43 -27 69 -81 61 -129 -12 -74 -85 -136 -153 -128
-107 12 -165 126 -108 214 40 61 137 82 200 43z m-5927 -59 c46 -24 72 -67 72
-121 0 -37 -6 -47 -60 -102 l-59 -61 -45 17 c-54 21 -103 73 -112 121 -9 50
29 124 76 147 45 23 82 23 128 -1z m5616 -140 c21 -23 66 -160 66 -201 0 -35
-24 -61 -48 -53 -9 3 -36 17 -59 31 -49 27 -52 21 -28 -48 18 -52 12 -78 -21
-86 -26 -7 -74 18 -177 89 -48 34 -57 45 -55 66 4 37 26 36 92 -4 32 -19 62
-35 67 -35 5 0 0 23 -12 52 -44 112 -7 145 91 84 30 -19 56 -34 57 -32 2 1 -7
30 -18 64 -12 35 -18 69 -15 77 8 21 40 19 60 -4z m-5359 -75 c41 -17 75 -68
75 -113 0 -61 -35 -51 -71 19 -11 21 -26 38 -34 38 -22 0 -19 -10 19 -63 43
-61 50 -90 31 -126 -30 -58 -117 -49 -178 18 -39 44 -55 94 -37 116 17 20 49
19 56 -2 13 -43 38 -83 56 -89 29 -9 30 -2 2 47 -47 84 -55 108 -44 130 21 38
70 48 125 25z m299 -82 c19 -7 21 -55 4 -72 -9 -9 -8 -16 5 -30 27 -29 22 -52
-11 -52 -32 0 -60 -26 -91 -85 l-21 -39 21 -23 c41 -43 -9 -74 -57 -35 -50 40
-51 76 -8 164 13 26 24 63 24 83 0 29 5 37 26 45 15 6 38 19 52 30 27 22 32
23 56 14z m194 -116 c7 -7 12 -23 12 -36 0 -19 -4 -23 -26 -20 -35 4 -53 31
-35 52 16 19 33 20 49 4z m-34 -90 c8 -14 4 -31 -21 -80 -47 -96 -89 -148
-117 -148 -53 0 -36 65 52 197 37 57 64 66 86 31z m4374 -21 c3 -23 -2 -29
-27 -38 -39 -14 -41 -49 -7 -117 39 -76 38 -112 -2 -112 -33 0 -56 28 -107
129 -48 96 -45 121 16 121 10 0 19 4 19 9 0 23 34 42 69 39 31 -3 36 -7 39
-31z m-4200 -77 c7 -11 19 -20 28 -20 29 0 80 -30 103 -61 l22 -30 -42 -79
c-52 -98 -91 -139 -114 -120 -23 19 -18 49 22 128 l37 72 -20 21 c-29 28 -46
18 -99 -61 -45 -66 -73 -89 -95 -75 -18 11 -11 48 21 115 57 121 105 160 137
110z m3932 -75 c34 -17 50 -43 50 -78 0 -14 9 -31 21 -39 20 -13 20 -15 6 -49
-44 -106 -193 -130 -251 -41 -43 66 -39 132 13 183 34 34 44 39 85 39 26 0 60
-7 76 -15z m-3532 -115 c31 -16 65 -31 75 -34 24 -7 22 -43 -7 -119 -33 -89
-64 -148 -94 -179 -48 -51 -155 -30 -216 43 -55 65 -4 94 62 35 39 -36 65 -43
91 -27 18 11 5 31 -20 31 -54 0 -109 66 -109 131 0 25 32 89 57 111 49 44 88
46 161 8z m3193 -31 c56 -56 96 -219 56 -227 -27 -6 -53 23 -78 86 -30 76 -50
98 -78 83 -25 -14 -26 -39 -5 -110 21 -70 16 -115 -13 -119 -18 -3 -28 9 -58
72 -22 46 -39 98 -42 131 l-6 55 31 0 c17 0 48 11 68 25 46 31 96 33 125 4z
m-2722 -53 c18 -21 2 -46 -29 -46 -31 0 -47 25 -29 46 6 8 19 14 29 14 10 0
23 -6 29 -14z m-35 -82 c16 -41 -7 -171 -40 -237 -16 -31 -40 -33 -58 -5 -12
19 13 163 39 225 15 36 48 45 59 17z m2427 -12 c24 -21 32 -38 34 -67 2 -22
10 -44 19 -50 25 -18 19 -44 -16 -79 -57 -57 -182 -72 -223 -27 -47 53 -38
180 17 226 24 20 40 25 84 25 45 0 59 -5 85 -28z m-2153 -52 c74 -1 99 -70 68
-188 -18 -67 -41 -102 -67 -102 -31 0 -33 25 -14 126 20 100 16 122 -23 110
-19 -7 -43 -47 -81 -138 -16 -40 -24 -48 -46 -48 -35 0 -38 15 -20 106 31 154
45 172 114 148 20 -7 51 -13 69 -14z m1808 -53 c34 -36 42 -69 25 -96 -6 -9
-4 -19 4 -28 54 -54 -121 -144 -191 -98 -43 28 -64 74 -64 139 0 53 3 61 35
93 34 34 37 35 97 31 55 -4 64 -8 94 -41z m-318 -49 c3 -25 0 -28 -37 -34
l-41 -7 7 -103 6 -103 -26 -6 c-65 -17 -75 7 -76 173 -1 89 0 92 22 92 12 0
29 5 37 10 8 6 35 9 60 8 41 -3 45 -6 48 -30z m-883 -12 c24 -16 25 -21 25
-114 0 -53 -3 -107 -6 -119 -7 -26 -41 -40 -57 -24 -6 6 -42 11 -81 11 -85 0
-116 21 -116 80 0 50 26 71 101 82 33 4 68 12 77 17 14 8 13 11 -11 22 -22 10
-33 9 -66 -6 -22 -10 -47 -15 -55 -12 -25 10 -19 43 12 67 23 19 36 21 89 17
35 -2 74 -12 88 -21z m599 -17 c3 -18 9 -75 12 -128 7 -118 -6 -165 -55 -198
-45 -30 -132 -32 -178 -3 -62 37 -24 87 41 55 43 -22 82 -19 100 7 26 37 20
49 -15 31 -37 -19 -102 -12 -129 12 -25 23 -40 70 -43 134 -2 49 1 55 35 87
37 34 39 34 132 34 l94 0 6 -31z"/>
<path d="M8657 2363 c-4 -3 -7 -21 -7 -39 0 -24 8 -39 31 -58 37 -31 62 -33
89 -6 28 28 25 38 -16 76 -33 32 -80 45 -97 27z"/>
<path d="M8066 1744 c-33 -32 -11 -91 45 -119 59 -31 93 20 53 79 -37 54 -70
68 -98 40z"/>
<path d="M2207 1683 c-23 -6 -18 -21 15 -46 29 -21 48 -16 48 13 0 16 -30 43
-42 39 -2 -1 -11 -3 -21 -6z"/>
<path d="M2140 1587 c0 -21 33 -46 68 -53 18 -4 32 -4 32 -1 0 7 -82 67 -92
67 -4 0 -8 -6 -8 -13z"/>
<path d="M6977 1003 c-13 -12 -7 -53 7 -53 19 0 67 40 61 51 -7 10 -58 12 -68
2z"/>
<path d="M7075 926 c-38 -16 -70 -52 -56 -60 6 -4 23 0 39 8 57 30 72 75 17
52z"/>
<path d="M3468 893 c-43 -49 -50 -104 -17 -127 56 -39 123 78 73 128 -20 21
-37 20 -56 -1z"/>
<path d="M6297 722 c-24 -26 -21 -42 7 -42 30 0 72 33 62 48 -11 18 -51 14
-69 -6z"/>
<path d="M6363 632 c-55 -23 -61 -30 -27 -38 32 -8 77 13 82 39 4 21 -1 21
-55 -1z"/>
<path d="M5935 630 c-25 -28 -8 -43 39 -35 42 8 53 20 36 40 -18 21 -54 18
-75 -5z"/>
<path d="M6025 545 c-5 -2 -22 -6 -37 -9 -29 -7 -38 -30 -14 -39 17 -7 78 23
84 41 3 11 -11 15 -33 7z"/>
<path d="M4743 463 c-7 -2 -13 -13 -13 -24 0 -14 7 -19 28 -19 30 0 52 16 52
37 0 13 -42 17 -67 6z"/>
<path d="M5304 535 c-21 -33 -13 -93 17 -118 19 -15 25 -16 43 -4 28 19 35
101 10 128 -24 26 -50 24 -70 -6z"/>
</g>
</svg>
